<?xml version="1.0" encoding="UTF-8" standalone="no"?>
<!DOCTYPE svg PUBLIC "-//W3C//DTD SVG 1.1//EN"
 "http://www.w3.org/Graphics/SVG/1.1/DTD/svg11.dtd">
<!-- Generated by graphviz version 2.26.3 (20100126.1600)
 -->
<!-- Title: ontologia Pages: 1 -->
<svg width="382pt" height="194pt"
 viewBox="0.00 0.00 382.00 194.00" xmlns="http://www.w3.org/2000/svg" xmlns:xlink="http://www.w3.org/1999/xlink">
<g id="graph1" class="graph" transform="scale(1 1) rotate(0) translate(4 190)">
<title>ontologia</title>
<polygon fill="white" stroke="white" points="-4,5 -4,-190 379,-190 379,5 -4,5"/>
<!-- conceito -->
<g id="node1" class="node"><title>conceito</title>
<ellipse fill="none" stroke="black" cx="207" cy="-167" rx="51.8276" ry="18.3848"/>
<text text-anchor="middle" x="207" y="-163.4" font-family="Times Roman,serif" font-size="14.00">conceito</text>
</g>
<!-- pessoa -->
<g id="node3" class="node"><title>pessoa</title>
<ellipse fill="none" stroke="black" cx="80" cy="-93" rx="44.0472" ry="18.3848"/>
<text text-anchor="middle" x="80" y="-89.4" font-family="Times Roman,serif" font-size="14.00">pessoa</text>
</g>
<!-- conceito&#45;&gt;pessoa -->
<g id="edge2" class="edge"><title>conceito&#45;&gt;pessoa</title>
<a xlink:href="http://sapo.pt">
<path fill="none" stroke="black" d="M179.755,-151.125C160.709,-140.027 135.117,-125.116 114.624,-113.175"/>
<polygon fill="black" stroke="black" points="116.301,-110.101 105.899,-108.091 112.777,-116.149 116.301,-110.101"/>
</a>
</g>
<!-- evento -->
<g id="node5" class="node"><title>evento</title>
<ellipse fill="none" stroke="black" cx="207" cy="-93" rx="45.9619" ry="18.3848"/>
<text text-anchor="middle" x="207" y="-89.4" font-family="Times Roman,serif" font-size="14.00">evento</text>
</g>
<!-- conceito&#45;&gt;evento -->
<g id="edge4" class="edge"><title>conceito&#45;&gt;evento</title>
<path fill="none" stroke="black" d="M207,-148.327C207,-140.264 207,-130.648 207,-121.711"/>
<polygon fill="black" stroke="black" points="210.5,-121.667 207,-111.667 203.5,-121.667 210.5,-121.667"/>
</g>
<!-- local -->
<g id="node13" class="node"><title>local</title>
<ellipse fill="none" stroke="black" cx="304" cy="-93" rx="33.234" ry="18.3848"/>
<text text-anchor="middle" x="304" y="-89.4" font-family="Times Roman,serif" font-size="14.00">local</text>
</g>
<!-- conceito&#45;&gt;local -->
<g id="edge12" class="edge"><title>conceito&#45;&gt;local</title>
<path fill="none" stroke="black" d="M229.011,-150.208C243.065,-139.486 261.401,-125.498 276.423,-114.038"/>
<polygon fill="black" stroke="black" points="278.552,-116.816 284.38,-107.968 274.306,-111.251 278.552,-116.816"/>
</g>
<!-- emigrante -->
<g id="node7" class="node"><title>emigrante</title>
<ellipse fill="none" stroke="black" cx="61" cy="-19" rx="61.0181" ry="18.3848"/>
<text text-anchor="middle" x="61" y="-15.4" font-family="Times Roman,serif" font-size="14.00">emigrante</text>
</g>
<!-- pessoa&#45;&gt;emigrante -->
<g id="edge6" class="edge"><title>pessoa&#45;&gt;emigrante</title>
<path fill="none" stroke="black" d="M75.2055,-74.3267C73.1128,-66.1762 70.6126,-56.4384 68.2971,-47.4203"/>
<polygon fill="black" stroke="black" points="71.67,-46.4827 65.793,-37.6674 64.8899,-48.2236 71.67,-46.4827"/>
</g>
<!-- nascimento -->
<g id="node9" class="node"><title>nascimento</title>
<ellipse fill="none" stroke="black" cx="207" cy="-19" rx="67.1751" ry="18.3848"/>
<text text-anchor="middle" x="207" y="-15.4" font-family="Times Roman,serif" font-size="14.00">nascimento</text>
</g>
<!-- evento&#45;&gt;nascimento -->
<g id="edge8" class="edge"><title>evento&#45;&gt;nascimento</title>
<path fill="none" stroke="black" d="M207,-74.3267C207,-66.2639 207,-56.6477 207,-47.7115"/>
<polygon fill="black" stroke="black" points="210.5,-47.6673 207,-37.6674 203.5,-47.6674 210.5,-47.6673"/>
</g>
<!-- morte -->
<g id="node11" class="node"><title>morte</title>
<ellipse fill="none" stroke="black" cx="333" cy="-19" rx="41.0122" ry="18.3848"/>
<text text-anchor="middle" x="333" y="-15.4" font-family="Times Roman,serif" font-size="14.00">morte</text>
</g>
<!-- evento&#45;&gt;morte -->
<g id="edge10" class="edge"><title>evento&#45;&gt;morte</title>
<path fill="none" stroke="black" d="M233.107,-77.6672C252.196,-66.4566 278.261,-51.1485 298.979,-38.9805"/>
<polygon fill="black" stroke="black" points="300.936,-41.8905 307.786,-33.8082 297.391,-35.8545 300.936,-41.8905"/>
</g>
</g>
</svg>
